<svg width="50" height="50" viewBox="0 0 50 50" fill="none"
    xmlns="http://www.w3.org/2000/svg">
    <circle cx="25" cy="25" r="25" fill="url(#paint0_linear_1_18)"/>
    <path d="M17.0068 39H11.3016C8.37783 39 6 36.6835 6 33.8352V24.7869C6 21.9385 8.37783 19.622 11.3016 19.622H17.0068C17.7254 19.622 18.3068 20.1885 18.3068 20.8885V37.7335C18.3068 38.4335 17.7254 39 17.0068 39ZM11.3016 22.155C9.8124 22.155 8.6 23.3361 8.6 24.7869V33.8352C8.6 35.2859 9.8124 36.4671 11.3016 36.4671H15.7068V22.155H11.3016Z" fill="white"/>
    <path d="M39.6984 39H33.9932C33.2746 39 32.6932 38.4335 32.6932 37.7335V20.8885C32.6932 20.1885 33.2746 19.622 33.9932 19.622H39.6984C42.6222 19.622 45 21.9385 45 24.7869V33.8352C45 36.6835 42.6222 39 39.6984 39ZM35.2932 36.4671H39.6984C41.1876 36.4671 42.4 35.2859 42.4 33.8352V24.7869C42.4 23.3361 41.1876 22.155 39.6984 22.155H35.2932V36.4671Z" fill="white"/>
    <path d="M17.0068 39H11.3016C8.37783 39 6 36.6835 6 33.8352V24.7869C6 21.9385 8.37783 19.622 11.3016 19.622H17.0068C17.7254 19.622 18.3068 20.1885 18.3068 20.8885V37.7335C18.3068 38.4335 17.7254 39 17.0068 39ZM11.3016 22.155C9.8124 22.155 8.6 23.3361 8.6 24.7869V33.8352C8.6 35.2859 9.8124 36.4671 11.3016 36.4671H15.7068V22.155H11.3016Z" fill="white"/>
    <path d="M39.6984 39H33.9932C33.2746 39 32.6932 38.4335 32.6932 37.7335V20.8885C32.6932 20.1885 33.2746 19.622 33.9932 19.622H39.6984C42.6222 19.622 45 21.9385 45 24.7869V33.8352C45 36.6835 42.6222 39 39.6984 39ZM35.2932 36.4671H39.6984C41.1876 36.4671 42.4 35.2859 42.4 33.8352V24.7869C42.4 23.3361 41.1876 22.155 39.6984 22.155H35.2932V36.4671Z" fill="white"/>
    <path d="M41.1965 20.8889C40.4303 13.1066 33.6853 7 25.5 7C17.3147 7 10.5697 13.1066 9.80354 20.8889H14.698C15.4402 15.7218 19.9943 11.7281 25.5 11.7281C31.0057 11.7281 35.5598 15.7218 36.302 20.8889H41.1965Z" fill="white"/>
    <defs>
        <linearGradient id="paint0_linear_1_18" x1="0" y1="25" x2="50" y2="25" gradientUnits="userSpaceOnUse">
            <stop stop-color="#7F00FF"/>
            <stop offset="1" stop-color="#E100FF"/>
        </linearGradient>
    </defs>
</svg>
    